<mxfile host="app.diagrams.net" modified="2024-06-22T10:57:13.885Z" agent="Mozilla/5.0 (Windows NT 10.0; Win64; x64) AppleWebKit/537.36 (KHTML, like Gecko) Chrome/126.0.0.0 Safari/537.36" etag="AJ6OKq2ZTAhQTxb_Nuwj" version="24.5.2" type="device">
  <diagram name="Page-1" id="j9vXRPfNxRyvvFTx8rKg">
    <mxGraphModel dx="2094" dy="511" grid="1" gridSize="10" guides="1" tooltips="1" connect="1" arrows="1" fold="1" page="1" pageScale="1" pageWidth="850" pageHeight="1100" math="0" shadow="0">
      <root>
        <mxCell id="0" />
        <mxCell id="1" parent="0" />
        <mxCell id="2qQ2AneOfPXwCeFbcFFo-25" style="edgeStyle=orthogonalEdgeStyle;rounded=0;orthogonalLoop=1;jettySize=auto;html=1;exitX=0;exitY=0.5;exitDx=0;exitDy=0;entryX=0.5;entryY=0;entryDx=0;entryDy=0;" parent="1" source="2qQ2AneOfPXwCeFbcFFo-1" target="2qQ2AneOfPXwCeFbcFFo-5" edge="1">
          <mxGeometry relative="1" as="geometry" />
        </mxCell>
        <mxCell id="2qQ2AneOfPXwCeFbcFFo-27" style="edgeStyle=orthogonalEdgeStyle;rounded=0;orthogonalLoop=1;jettySize=auto;html=1;exitX=1;exitY=0.5;exitDx=0;exitDy=0;entryX=0.5;entryY=0;entryDx=0;entryDy=0;" parent="1" source="2qQ2AneOfPXwCeFbcFFo-1" target="2qQ2AneOfPXwCeFbcFFo-6" edge="1">
          <mxGeometry relative="1" as="geometry" />
        </mxCell>
        <mxCell id="2qQ2AneOfPXwCeFbcFFo-1" value="&lt;font style=&quot;font-size: 24px;&quot;&gt;Log In&lt;/font&gt;" style="rounded=0;whiteSpace=wrap;html=1;" parent="1" vertex="1">
          <mxGeometry x="375" y="190" width="120" height="60" as="geometry" />
        </mxCell>
        <mxCell id="EIiJeKfcNaSdkburaB-3-5" style="edgeStyle=orthogonalEdgeStyle;rounded=0;orthogonalLoop=1;jettySize=auto;html=1;exitX=0.5;exitY=1;exitDx=0;exitDy=0;entryX=0.5;entryY=0;entryDx=0;entryDy=0;" edge="1" parent="1" source="2qQ2AneOfPXwCeFbcFFo-5" target="EIiJeKfcNaSdkburaB-3-3">
          <mxGeometry relative="1" as="geometry" />
        </mxCell>
        <mxCell id="2qQ2AneOfPXwCeFbcFFo-5" value="&lt;font style=&quot;font-size: 24px;&quot;&gt;Halaman Admin&lt;/font&gt;" style="rounded=0;whiteSpace=wrap;html=1;" parent="1" vertex="1">
          <mxGeometry x="190" y="280" width="150" height="70" as="geometry" />
        </mxCell>
        <mxCell id="EIiJeKfcNaSdkburaB-3-6" style="edgeStyle=orthogonalEdgeStyle;rounded=0;orthogonalLoop=1;jettySize=auto;html=1;exitX=0.5;exitY=1;exitDx=0;exitDy=0;" edge="1" parent="1" source="2qQ2AneOfPXwCeFbcFFo-6" target="EIiJeKfcNaSdkburaB-3-1">
          <mxGeometry relative="1" as="geometry" />
        </mxCell>
        <mxCell id="2qQ2AneOfPXwCeFbcFFo-6" value="&lt;font style=&quot;font-size: 24px;&quot;&gt;Menu Game&lt;/font&gt;" style="rounded=0;whiteSpace=wrap;html=1;" parent="1" vertex="1">
          <mxGeometry x="520" y="280" width="150" height="70" as="geometry" />
        </mxCell>
        <mxCell id="2qQ2AneOfPXwCeFbcFFo-24" style="edgeStyle=orthogonalEdgeStyle;rounded=0;orthogonalLoop=1;jettySize=auto;html=1;exitX=0.5;exitY=1;exitDx=0;exitDy=0;entryX=0.5;entryY=0;entryDx=0;entryDy=0;" parent="1" source="2qQ2AneOfPXwCeFbcFFo-7" target="2qQ2AneOfPXwCeFbcFFo-1" edge="1">
          <mxGeometry relative="1" as="geometry" />
        </mxCell>
        <mxCell id="2qQ2AneOfPXwCeFbcFFo-7" value="&lt;font style=&quot;font-size: 24px;&quot;&gt;Registrasi&lt;/font&gt;" style="rounded=0;whiteSpace=wrap;html=1;" parent="1" vertex="1">
          <mxGeometry x="360" y="80" width="150" height="70" as="geometry" />
        </mxCell>
        <mxCell id="EIiJeKfcNaSdkburaB-3-13" style="edgeStyle=orthogonalEdgeStyle;rounded=0;orthogonalLoop=1;jettySize=auto;html=1;exitX=0.5;exitY=0.5;exitDx=0;exitDy=0;exitPerimeter=0;entryX=1;entryY=0.5;entryDx=0;entryDy=0;" edge="1" parent="1" source="2qQ2AneOfPXwCeFbcFFo-13" target="2qQ2AneOfPXwCeFbcFFo-7">
          <mxGeometry relative="1" as="geometry">
            <Array as="points">
              <mxPoint x="760" y="400" />
              <mxPoint x="760" y="115" />
            </Array>
          </mxGeometry>
        </mxCell>
        <mxCell id="EIiJeKfcNaSdkburaB-3-14" style="edgeStyle=orthogonalEdgeStyle;rounded=0;orthogonalLoop=1;jettySize=auto;html=1;exitX=0.5;exitY=0.5;exitDx=0;exitDy=0;exitPerimeter=0;entryX=1;entryY=0.25;entryDx=0;entryDy=0;" edge="1" parent="1" source="2qQ2AneOfPXwCeFbcFFo-13" target="2qQ2AneOfPXwCeFbcFFo-1">
          <mxGeometry relative="1" as="geometry">
            <Array as="points">
              <mxPoint x="760" y="400" />
              <mxPoint x="760" y="205" />
            </Array>
          </mxGeometry>
        </mxCell>
        <mxCell id="EIiJeKfcNaSdkburaB-3-15" style="edgeStyle=orthogonalEdgeStyle;rounded=0;orthogonalLoop=1;jettySize=auto;html=1;exitX=0.5;exitY=0.5;exitDx=0;exitDy=0;exitPerimeter=0;entryX=1;entryY=0.5;entryDx=0;entryDy=0;" edge="1" parent="1" source="2qQ2AneOfPXwCeFbcFFo-13" target="2qQ2AneOfPXwCeFbcFFo-6">
          <mxGeometry relative="1" as="geometry">
            <Array as="points">
              <mxPoint x="760" y="400" />
              <mxPoint x="760" y="315" />
            </Array>
          </mxGeometry>
        </mxCell>
        <mxCell id="EIiJeKfcNaSdkburaB-3-16" style="edgeStyle=orthogonalEdgeStyle;rounded=0;orthogonalLoop=1;jettySize=auto;html=1;exitX=0.5;exitY=0.5;exitDx=0;exitDy=0;exitPerimeter=0;entryX=1;entryY=0.5;entryDx=0;entryDy=0;" edge="1" parent="1" source="2qQ2AneOfPXwCeFbcFFo-13" target="EIiJeKfcNaSdkburaB-3-1">
          <mxGeometry relative="1" as="geometry">
            <Array as="points">
              <mxPoint x="760" y="400" />
              <mxPoint x="760" y="435" />
            </Array>
          </mxGeometry>
        </mxCell>
        <mxCell id="EIiJeKfcNaSdkburaB-3-17" style="edgeStyle=orthogonalEdgeStyle;rounded=0;orthogonalLoop=1;jettySize=auto;html=1;exitX=0.5;exitY=0.5;exitDx=0;exitDy=0;exitPerimeter=0;entryX=1;entryY=0.5;entryDx=0;entryDy=0;" edge="1" parent="1" source="2qQ2AneOfPXwCeFbcFFo-13" target="EIiJeKfcNaSdkburaB-3-2">
          <mxGeometry relative="1" as="geometry">
            <Array as="points">
              <mxPoint x="760" y="400" />
              <mxPoint x="760" y="550" />
            </Array>
          </mxGeometry>
        </mxCell>
        <mxCell id="EIiJeKfcNaSdkburaB-3-18" style="edgeStyle=orthogonalEdgeStyle;rounded=0;orthogonalLoop=1;jettySize=auto;html=1;exitX=0.5;exitY=0.5;exitDx=0;exitDy=0;exitPerimeter=0;entryX=1;entryY=0.5;entryDx=0;entryDy=0;" edge="1" parent="1" source="2qQ2AneOfPXwCeFbcFFo-13" target="EIiJeKfcNaSdkburaB-3-4">
          <mxGeometry relative="1" as="geometry">
            <Array as="points">
              <mxPoint x="760" y="400" />
              <mxPoint x="760" y="675" />
            </Array>
          </mxGeometry>
        </mxCell>
        <mxCell id="2qQ2AneOfPXwCeFbcFFo-13" value="&lt;font style=&quot;font-size: 24px;&quot;&gt;Mahasiswa&lt;/font&gt;" style="shape=umlActor;verticalLabelPosition=bottom;verticalAlign=top;html=1;outlineConnect=0;" parent="1" vertex="1">
          <mxGeometry x="810" y="320" width="110" height="160" as="geometry" />
        </mxCell>
        <mxCell id="EIiJeKfcNaSdkburaB-3-9" style="edgeStyle=orthogonalEdgeStyle;rounded=0;orthogonalLoop=1;jettySize=auto;html=1;exitX=0.5;exitY=0.5;exitDx=0;exitDy=0;exitPerimeter=0;entryX=0;entryY=0.5;entryDx=0;entryDy=0;" edge="1" parent="1" source="2qQ2AneOfPXwCeFbcFFo-17" target="2qQ2AneOfPXwCeFbcFFo-7">
          <mxGeometry relative="1" as="geometry">
            <Array as="points">
              <mxPoint x="80" y="360" />
              <mxPoint x="80" y="115" />
            </Array>
          </mxGeometry>
        </mxCell>
        <mxCell id="EIiJeKfcNaSdkburaB-3-10" style="edgeStyle=orthogonalEdgeStyle;rounded=0;orthogonalLoop=1;jettySize=auto;html=1;exitX=0.5;exitY=0.5;exitDx=0;exitDy=0;exitPerimeter=0;entryX=0;entryY=0.25;entryDx=0;entryDy=0;" edge="1" parent="1" source="2qQ2AneOfPXwCeFbcFFo-17" target="2qQ2AneOfPXwCeFbcFFo-1">
          <mxGeometry relative="1" as="geometry">
            <Array as="points">
              <mxPoint x="80" y="360" />
              <mxPoint x="80" y="205" />
            </Array>
          </mxGeometry>
        </mxCell>
        <mxCell id="EIiJeKfcNaSdkburaB-3-11" style="edgeStyle=orthogonalEdgeStyle;rounded=0;orthogonalLoop=1;jettySize=auto;html=1;exitX=0.5;exitY=0.5;exitDx=0;exitDy=0;exitPerimeter=0;entryX=0;entryY=0.5;entryDx=0;entryDy=0;" edge="1" parent="1" source="2qQ2AneOfPXwCeFbcFFo-17" target="2qQ2AneOfPXwCeFbcFFo-5">
          <mxGeometry relative="1" as="geometry">
            <Array as="points">
              <mxPoint x="80" y="360" />
              <mxPoint x="80" y="315" />
            </Array>
          </mxGeometry>
        </mxCell>
        <mxCell id="EIiJeKfcNaSdkburaB-3-12" style="edgeStyle=orthogonalEdgeStyle;rounded=0;orthogonalLoop=1;jettySize=auto;html=1;exitX=0.5;exitY=0.5;exitDx=0;exitDy=0;exitPerimeter=0;" edge="1" parent="1" source="2qQ2AneOfPXwCeFbcFFo-17" target="EIiJeKfcNaSdkburaB-3-3">
          <mxGeometry relative="1" as="geometry" />
        </mxCell>
        <mxCell id="2qQ2AneOfPXwCeFbcFFo-17" value="&lt;font style=&quot;font-size: 24px;&quot;&gt;Dosen&lt;/font&gt;" style="shape=umlActor;verticalLabelPosition=bottom;verticalAlign=top;html=1;outlineConnect=0;" parent="1" vertex="1">
          <mxGeometry x="-110" y="280" width="110" height="160" as="geometry" />
        </mxCell>
        <mxCell id="EIiJeKfcNaSdkburaB-3-7" style="edgeStyle=orthogonalEdgeStyle;rounded=0;orthogonalLoop=1;jettySize=auto;html=1;exitX=0.5;exitY=1;exitDx=0;exitDy=0;entryX=0.5;entryY=0;entryDx=0;entryDy=0;" edge="1" parent="1" source="EIiJeKfcNaSdkburaB-3-1" target="EIiJeKfcNaSdkburaB-3-2">
          <mxGeometry relative="1" as="geometry" />
        </mxCell>
        <mxCell id="EIiJeKfcNaSdkburaB-3-1" value="&lt;font style=&quot;font-size: 24px;&quot;&gt;Memilih Lantai&lt;/font&gt;" style="rounded=0;whiteSpace=wrap;html=1;" vertex="1" parent="1">
          <mxGeometry x="520" y="400" width="150" height="70" as="geometry" />
        </mxCell>
        <mxCell id="EIiJeKfcNaSdkburaB-3-8" style="edgeStyle=orthogonalEdgeStyle;rounded=0;orthogonalLoop=1;jettySize=auto;html=1;exitX=0.5;exitY=1;exitDx=0;exitDy=0;" edge="1" parent="1" source="EIiJeKfcNaSdkburaB-3-2" target="EIiJeKfcNaSdkburaB-3-4">
          <mxGeometry relative="1" as="geometry" />
        </mxCell>
        <mxCell id="EIiJeKfcNaSdkburaB-3-2" value="&lt;font style=&quot;font-size: 24px;&quot;&gt;Melakukan Quest&lt;/font&gt;" style="rounded=0;whiteSpace=wrap;html=1;" vertex="1" parent="1">
          <mxGeometry x="520" y="515" width="150" height="70" as="geometry" />
        </mxCell>
        <mxCell id="EIiJeKfcNaSdkburaB-3-3" value="&lt;font style=&quot;font-size: 24px;&quot;&gt;Melihat Score Data Mahasiswa&lt;/font&gt;" style="rounded=0;whiteSpace=wrap;html=1;" vertex="1" parent="1">
          <mxGeometry x="155" y="410" width="220" height="120" as="geometry" />
        </mxCell>
        <mxCell id="EIiJeKfcNaSdkburaB-3-4" value="&lt;font style=&quot;font-size: 24px;&quot;&gt;Melihat Score Akhir&lt;/font&gt;" style="rounded=0;whiteSpace=wrap;html=1;" vertex="1" parent="1">
          <mxGeometry x="510" y="640" width="170" height="70" as="geometry" />
        </mxCell>
      </root>
    </mxGraphModel>
  </diagram>
</mxfile>
